<!DOCTYPE svg PUBLIC "-//W3C//DTD SVG 1.1//EN" "http://www.w3.org/Graphics/SVG/1.1/DTD/svg11.dtd">
<!-- Uploaded to: SVG Repo, www.svgrepo.com, Transformed by: SVG Repo Mixer Tools -->
<svg fill="#ffffff" width="172px" height="172px" viewBox="-3.6 -3.6 31.20 31.20" xmlns="http://www.w3.org/2000/svg" stroke="#ffffff" stroke-width="0.40800000000000003">
<g id="SVGRepo_bgCarrier" stroke-width="0">
<rect x="-3.6" y="-3.6" width="31.20" height="31.20" rx="15.6" fill="#1d65d7" strokewidth="0"/>
</g>
<g id="SVGRepo_tracerCarrier" stroke-linecap="round" stroke-linejoin="round"/>
<g id="SVGRepo_iconCarrier">
<path d="M23,4V16a1,1,0,0,1-1,1H18a1,1,0,0,1,0-2h3V5H3V15H6a1,1,0,0,1,0,2H2a1,1,0,0,1-1-1V4A1,1,0,0,1,2,3H22A1,1,0,0,1,23,4ZM7.118,20.472a1,1,0,0,1,.05-1.027l4-6a1.039,1.039,0,0,1,1.664,0l4,6A1,1,0,0,1,16,21H8A1,1,0,0,1,7.118,20.472ZM9.868,19h4.264L12,15.8Z"/>
</g>
</svg>